<svg width="356" height="90" viewBox="0 0 356 90" fill="none" xmlns="http://www.w3.org/2000/svg">
<path d="M121.438 44.38H119.248V49H117.778V38.5H119.248V43.06H121.468L124.768 38.5H126.373L122.623 43.585L126.553 49H124.843L121.438 44.38ZM131.153 49.09C130.363 49.09 129.653 48.915 129.023 48.565C128.393 48.215 127.898 47.735 127.538 47.125C127.188 46.505 127.013 45.805 127.013 45.025C127.013 44.245 127.188 43.55 127.538 42.94C127.898 42.32 128.393 41.84 129.023 41.5C129.653 41.15 130.363 40.975 131.153 40.975C131.943 40.975 132.648 41.15 133.268 41.5C133.898 41.84 134.388 42.32 134.738 42.94C135.098 43.55 135.278 44.245 135.278 45.025C135.278 45.805 135.098 46.505 134.738 47.125C134.388 47.735 133.898 48.215 133.268 48.565C132.648 48.915 131.943 49.09 131.153 49.09ZM131.153 47.83C131.663 47.83 132.118 47.715 132.518 47.485C132.928 47.245 133.248 46.915 133.478 46.495C133.708 46.065 133.823 45.575 133.823 45.025C133.823 44.475 133.708 43.99 133.478 43.57C133.248 43.14 132.928 42.81 132.518 42.58C132.118 42.35 131.663 42.235 131.153 42.235C130.643 42.235 130.183 42.35 129.773 42.58C129.373 42.81 129.053 43.14 128.813 43.57C128.583 43.99 128.468 44.475 128.468 45.025C128.468 45.575 128.583 46.065 128.813 46.495C129.053 46.915 129.373 47.245 129.773 47.485C130.183 47.715 130.643 47.83 131.153 47.83ZM137.357 41.05H138.797V44.425H143.327V41.05H144.767V49H143.327V45.67H138.797V49H137.357V41.05ZM151.032 49.09C150.222 49.09 149.497 48.915 148.857 48.565C148.227 48.215 147.732 47.735 147.372 47.125C147.012 46.505 146.832 45.805 146.832 45.025C146.832 44.245 147.012 43.55 147.372 42.94C147.732 42.32 148.227 41.84 148.857 41.5C149.497 41.15 150.222 40.975 151.032 40.975C151.752 40.975 152.392 41.12 152.952 41.41C153.522 41.7 153.962 42.12 154.272 42.67L153.177 43.375C152.927 42.995 152.617 42.71 152.247 42.52C151.877 42.33 151.467 42.235 151.017 42.235C150.497 42.235 150.027 42.35 149.607 42.58C149.197 42.81 148.872 43.14 148.632 43.57C148.402 43.99 148.287 44.475 148.287 45.025C148.287 45.585 148.402 46.08 148.632 46.51C148.872 46.93 149.197 47.255 149.607 47.485C150.027 47.715 150.497 47.83 151.017 47.83C151.467 47.83 151.877 47.735 152.247 47.545C152.617 47.355 152.927 47.07 153.177 46.69L154.272 47.38C153.962 47.93 153.522 48.355 152.952 48.655C152.392 48.945 151.752 49.09 151.032 49.09ZM161.959 42.31H159.049V49H157.609V42.31H154.699V41.05H161.959V42.31ZM167.646 40.975C168.416 40.975 169.106 41.145 169.716 41.485C170.326 41.825 170.801 42.3 171.141 42.91C171.491 43.52 171.666 44.225 171.666 45.025C171.666 45.825 171.491 46.535 171.141 47.155C170.801 47.765 170.326 48.24 169.716 48.58C169.106 48.92 168.416 49.09 167.646 49.09C167.076 49.09 166.551 48.98 166.071 48.76C165.601 48.54 165.201 48.22 164.871 47.8V51.91H163.431V41.05H164.811V42.31C165.131 41.87 165.536 41.54 166.026 41.32C166.516 41.09 167.056 40.975 167.646 40.975ZM167.526 47.83C168.036 47.83 168.491 47.715 168.891 47.485C169.301 47.245 169.621 46.915 169.851 46.495C170.091 46.065 170.211 45.575 170.211 45.025C170.211 44.475 170.091 43.99 169.851 43.57C169.621 43.14 169.301 42.81 168.891 42.58C168.491 42.35 168.036 42.235 167.526 42.235C167.026 42.235 166.571 42.355 166.161 42.595C165.761 42.825 165.441 43.15 165.201 43.57C164.971 43.99 164.856 44.475 164.856 45.025C164.856 45.575 164.971 46.065 165.201 46.495C165.431 46.915 165.751 47.245 166.161 47.485C166.571 47.715 167.026 47.83 167.526 47.83ZM180.634 41.05L176.779 49.795C176.439 50.605 176.039 51.175 175.579 51.505C175.129 51.835 174.584 52 173.944 52C173.554 52 173.174 51.935 172.804 51.805C172.444 51.685 172.144 51.505 171.904 51.265L172.519 50.185C172.929 50.575 173.404 50.77 173.944 50.77C174.294 50.77 174.584 50.675 174.814 50.485C175.054 50.305 175.269 49.99 175.459 49.54L175.714 48.985L172.204 41.05H173.704L176.479 47.41L179.224 41.05H180.634ZM182.108 41.05H183.548V46.84L188.423 41.05H189.728V49H188.288V43.21L183.428 49H182.108V41.05ZM196.738 40.975C197.508 40.975 198.198 41.145 198.808 41.485C199.418 41.825 199.893 42.3 200.233 42.91C200.583 43.52 200.758 44.225 200.758 45.025C200.758 45.825 200.583 46.535 200.233 47.155C199.893 47.765 199.418 48.24 198.808 48.58C198.198 48.92 197.508 49.09 196.738 49.09C196.168 49.09 195.643 48.98 195.163 48.76C194.693 48.54 194.293 48.22 193.963 47.8V51.91H192.523V41.05H193.903V42.31C194.223 41.87 194.628 41.54 195.118 41.32C195.608 41.09 196.148 40.975 196.738 40.975ZM196.618 47.83C197.128 47.83 197.583 47.715 197.983 47.485C198.393 47.245 198.713 46.915 198.943 46.495C199.183 46.065 199.303 45.575 199.303 45.025C199.303 44.475 199.183 43.99 198.943 43.57C198.713 43.14 198.393 42.81 197.983 42.58C197.583 42.35 197.128 42.235 196.618 42.235C196.118 42.235 195.663 42.355 195.253 42.595C194.853 42.825 194.533 43.15 194.293 43.57C194.063 43.99 193.948 44.475 193.948 45.025C193.948 45.575 194.063 46.065 194.293 46.495C194.523 46.915 194.843 47.245 195.253 47.485C195.663 47.715 196.118 47.83 196.618 47.83ZM206.255 49.09C205.465 49.09 204.755 48.915 204.125 48.565C203.495 48.215 203 47.735 202.64 47.125C202.29 46.505 202.115 45.805 202.115 45.025C202.115 44.245 202.29 43.55 202.64 42.94C203 42.32 203.495 41.84 204.125 41.5C204.755 41.15 205.465 40.975 206.255 40.975C207.045 40.975 207.75 41.15 208.37 41.5C209 41.84 209.49 42.32 209.84 42.94C210.2 43.55 210.38 44.245 210.38 45.025C210.38 45.805 210.2 46.505 209.84 47.125C209.49 47.735 209 48.215 208.37 48.565C207.75 48.915 207.045 49.09 206.255 49.09ZM206.255 47.83C206.765 47.83 207.22 47.715 207.62 47.485C208.03 47.245 208.35 46.915 208.58 46.495C208.81 46.065 208.925 45.575 208.925 45.025C208.925 44.475 208.81 43.99 208.58 43.57C208.35 43.14 208.03 42.81 207.62 42.58C207.22 42.35 206.765 42.235 206.255 42.235C205.745 42.235 205.285 42.35 204.875 42.58C204.475 42.81 204.155 43.14 203.915 43.57C203.685 43.99 203.57 44.475 203.57 45.025C203.57 45.575 203.685 46.065 203.915 46.495C204.155 46.915 204.475 47.245 204.875 47.485C205.285 47.715 205.745 47.83 206.255 47.83ZM217.875 44.875C218.905 45.135 219.42 45.78 219.42 46.81C219.42 47.51 219.155 48.05 218.625 48.43C218.105 48.81 217.325 49 216.285 49H212.46V41.05H216.15C217.09 41.05 217.825 41.23 218.355 41.59C218.885 41.94 219.15 42.44 219.15 43.09C219.15 43.51 219.035 43.875 218.805 44.185C218.585 44.485 218.275 44.715 217.875 44.875ZM213.87 44.47H216.03C216.58 44.47 216.995 44.37 217.275 44.17C217.565 43.97 217.71 43.68 217.71 43.3C217.71 42.54 217.15 42.16 216.03 42.16H213.87V44.47ZM216.18 47.89C216.78 47.89 217.23 47.795 217.53 47.605C217.83 47.415 217.98 47.12 217.98 46.72C217.98 46.31 217.84 46.005 217.56 45.805C217.29 45.605 216.86 45.505 216.27 45.505H213.87V47.89H216.18ZM224.509 40.975C225.609 40.975 226.449 41.245 227.029 41.785C227.619 42.325 227.914 43.13 227.914 44.2V49H226.549V47.95C226.309 48.32 225.964 48.605 225.514 48.805C225.074 48.995 224.549 49.09 223.939 49.09C223.049 49.09 222.334 48.875 221.794 48.445C221.264 48.015 220.999 47.45 220.999 46.75C220.999 46.05 221.254 45.49 221.764 45.07C222.274 44.64 223.084 44.425 224.194 44.425H226.474V44.14C226.474 43.52 226.294 43.045 225.934 42.715C225.574 42.385 225.044 42.22 224.344 42.22C223.874 42.22 223.414 42.3 222.964 42.46C222.514 42.61 222.134 42.815 221.824 43.075L221.224 41.995C221.634 41.665 222.124 41.415 222.694 41.245C223.264 41.065 223.869 40.975 224.509 40.975ZM224.179 47.98C224.729 47.98 225.204 47.86 225.604 47.62C226.004 47.37 226.294 47.02 226.474 46.57V45.46H224.254C223.034 45.46 222.424 45.87 222.424 46.69C222.424 47.09 222.579 47.405 222.889 47.635C223.199 47.865 223.629 47.98 224.179 47.98ZM230.507 41.05H231.947V44.425H236.477V41.05H237.917V49H236.477V45.67H231.947V49H230.507V41.05ZM240.717 41.05H242.157V46.84L247.032 41.05H248.337V49H246.897V43.21L242.037 49H240.717V41.05ZM258.317 45.07C258.317 45.18 258.307 45.325 258.287 45.505H251.837C251.927 46.205 252.232 46.77 252.752 47.2C253.282 47.62 253.937 47.83 254.717 47.83C255.667 47.83 256.432 47.51 257.012 46.87L257.807 47.8C257.447 48.22 256.997 48.54 256.457 48.76C255.927 48.98 255.332 49.09 254.672 49.09C253.832 49.09 253.087 48.92 252.437 48.58C251.787 48.23 251.282 47.745 250.922 47.125C250.572 46.505 250.397 45.805 250.397 45.025C250.397 44.255 250.567 43.56 250.907 42.94C251.257 42.32 251.732 41.84 252.332 41.5C252.942 41.15 253.627 40.975 254.387 40.975C255.147 40.975 255.822 41.15 256.412 41.5C257.012 41.84 257.477 42.32 257.807 42.94C258.147 43.56 258.317 44.27 258.317 45.07ZM254.387 42.19C253.697 42.19 253.117 42.4 252.647 42.82C252.187 43.24 251.917 43.79 251.837 44.47H256.937C256.857 43.8 256.582 43.255 256.112 42.835C255.652 42.405 255.077 42.19 254.387 42.19ZM117.538 59.05H118.978V64.84L123.853 59.05H125.158V67H123.718V61.21L118.858 67H117.538V59.05ZM137.906 60.31H134.996V67H133.556V60.31H130.646V59.05H137.906V60.31ZM146.212 63.07C146.212 63.18 146.202 63.325 146.182 63.505H139.732C139.822 64.205 140.127 64.77 140.647 65.2C141.177 65.62 141.832 65.83 142.612 65.83C143.562 65.83 144.327 65.51 144.907 64.87L145.702 65.8C145.342 66.22 144.892 66.54 144.352 66.76C143.822 66.98 143.227 67.09 142.567 67.09C141.727 67.09 140.982 66.92 140.332 66.58C139.682 66.23 139.177 65.745 138.817 65.125C138.467 64.505 138.292 63.805 138.292 63.025C138.292 62.255 138.462 61.56 138.802 60.94C139.152 60.32 139.627 59.84 140.227 59.5C140.837 59.15 141.522 58.975 142.282 58.975C143.042 58.975 143.717 59.15 144.307 59.5C144.907 59.84 145.372 60.32 145.702 60.94C146.042 61.56 146.212 62.27 146.212 63.07ZM142.282 60.19C141.592 60.19 141.012 60.4 140.542 60.82C140.082 61.24 139.812 61.79 139.732 62.47H144.832C144.752 61.8 144.477 61.255 144.007 60.835C143.547 60.405 142.972 60.19 142.282 60.19ZM153.191 67L150.896 63.955L148.571 67H146.966L150.101 62.935L147.116 59.05H148.721L150.911 61.915L153.086 59.05H154.661L151.661 62.935L154.826 67H153.191ZM156.342 59.05H157.782V62.425H162.312V59.05H163.752V67H162.312V63.67H157.782V67H156.342V59.05ZM169.956 67.09C169.166 67.09 168.456 66.915 167.826 66.565C167.196 66.215 166.701 65.735 166.341 65.125C165.991 64.505 165.816 63.805 165.816 63.025C165.816 62.245 165.991 61.55 166.341 60.94C166.701 60.32 167.196 59.84 167.826 59.5C168.456 59.15 169.166 58.975 169.956 58.975C170.746 58.975 171.451 59.15 172.071 59.5C172.701 59.84 173.191 60.32 173.541 60.94C173.901 61.55 174.081 62.245 174.081 63.025C174.081 63.805 173.901 64.505 173.541 65.125C173.191 65.735 172.701 66.215 172.071 66.565C171.451 66.915 170.746 67.09 169.956 67.09ZM169.956 65.83C170.466 65.83 170.921 65.715 171.321 65.485C171.731 65.245 172.051 64.915 172.281 64.495C172.511 64.065 172.626 63.575 172.626 63.025C172.626 62.475 172.511 61.99 172.281 61.57C172.051 61.14 171.731 60.81 171.321 60.58C170.921 60.35 170.466 60.235 169.956 60.235C169.446 60.235 168.986 60.35 168.576 60.58C168.176 60.81 167.856 61.14 167.616 61.57C167.386 61.99 167.271 62.475 167.271 63.025C167.271 63.575 167.386 64.065 167.616 64.495C167.856 64.915 168.176 65.245 168.576 65.485C168.986 65.715 169.446 65.83 169.956 65.83ZM182.927 59.05V67H181.487V60.31H178.067L177.977 62.08C177.927 63.15 177.832 64.045 177.692 64.765C177.552 65.475 177.322 66.045 177.002 66.475C176.682 66.905 176.237 67.12 175.667 67.12C175.407 67.12 175.112 67.075 174.782 66.985L174.872 65.77C175.002 65.8 175.122 65.815 175.232 65.815C175.632 65.815 175.932 65.64 176.132 65.29C176.332 64.94 176.462 64.525 176.522 64.045C176.582 63.565 176.637 62.88 176.687 61.99L176.822 59.05H182.927ZM189.117 67.09C188.327 67.09 187.617 66.915 186.987 66.565C186.357 66.215 185.862 65.735 185.502 65.125C185.152 64.505 184.977 63.805 184.977 63.025C184.977 62.245 185.152 61.55 185.502 60.94C185.862 60.32 186.357 59.84 186.987 59.5C187.617 59.15 188.327 58.975 189.117 58.975C189.907 58.975 190.612 59.15 191.232 59.5C191.862 59.84 192.352 60.32 192.702 60.94C193.062 61.55 193.242 62.245 193.242 63.025C193.242 63.805 193.062 64.505 192.702 65.125C192.352 65.735 191.862 66.215 191.232 66.565C190.612 66.915 189.907 67.09 189.117 67.09ZM189.117 65.83C189.627 65.83 190.082 65.715 190.482 65.485C190.892 65.245 191.212 64.915 191.442 64.495C191.672 64.065 191.787 63.575 191.787 63.025C191.787 62.475 191.672 61.99 191.442 61.57C191.212 61.14 190.892 60.81 190.482 60.58C190.082 60.35 189.627 60.235 189.117 60.235C188.607 60.235 188.147 60.35 187.737 60.58C187.337 60.81 187.017 61.14 186.777 61.57C186.547 61.99 186.432 62.475 186.432 63.025C186.432 63.575 186.547 64.065 186.777 64.495C187.017 64.915 187.337 65.245 187.737 65.485C188.147 65.715 188.607 65.83 189.117 65.83ZM201.171 60.31H196.761V67H195.321V59.05H201.171V60.31ZM202.645 59.05H204.085V64.84L208.96 59.05H210.265V67H208.825V61.21L203.965 67H202.645V59.05ZM219.435 59.05V67H218.145V64.48H215.835H215.67L213.93 67H212.385L214.32 64.285C213.72 64.105 213.26 63.81 212.94 63.4C212.62 62.98 212.46 62.46 212.46 61.84C212.46 60.93 212.77 60.24 213.39 59.77C214.01 59.29 214.865 59.05 215.955 59.05H219.435ZM213.93 61.885C213.93 62.415 214.095 62.81 214.425 63.07C214.765 63.32 215.27 63.445 215.94 63.445H218.145V60.31H216C214.62 60.31 213.93 60.835 213.93 61.885ZM229.678 67.09C228.888 67.09 228.178 66.915 227.548 66.565C226.918 66.215 226.423 65.735 226.063 65.125C225.713 64.505 225.538 63.805 225.538 63.025C225.538 62.245 225.713 61.55 226.063 60.94C226.423 60.32 226.918 59.84 227.548 59.5C228.178 59.15 228.888 58.975 229.678 58.975C230.468 58.975 231.173 59.15 231.793 59.5C232.423 59.84 232.913 60.32 233.263 60.94C233.623 61.55 233.803 62.245 233.803 63.025C233.803 63.805 233.623 64.505 233.263 65.125C232.913 65.735 232.423 66.215 231.793 66.565C231.173 66.915 230.468 67.09 229.678 67.09ZM229.678 65.83C230.188 65.83 230.643 65.715 231.043 65.485C231.453 65.245 231.773 64.915 232.003 64.495C232.233 64.065 232.348 63.575 232.348 63.025C232.348 62.475 232.233 61.99 232.003 61.57C231.773 61.14 231.453 60.81 231.043 60.58C230.643 60.35 230.188 60.235 229.678 60.235C229.168 60.235 228.708 60.35 228.298 60.58C227.898 60.81 227.578 61.14 227.338 61.57C227.108 61.99 226.993 62.475 226.993 63.025C226.993 63.575 227.108 64.065 227.338 64.495C227.578 64.915 227.898 65.245 228.298 65.485C228.708 65.715 229.168 65.83 229.678 65.83ZM243.909 65.74V68.845H242.559V67H235.914V68.845H234.549V65.74H234.969C235.479 65.71 235.829 65.35 236.019 64.66C236.209 63.97 236.339 62.995 236.409 61.735L236.529 59.05H242.694V65.74H243.909ZM237.729 61.84C237.689 62.84 237.604 63.67 237.474 64.33C237.354 64.98 237.129 65.45 236.799 65.74H241.254V60.31H237.804L237.729 61.84ZM252.97 63.07C252.97 63.18 252.96 63.325 252.94 63.505H246.49C246.58 64.205 246.885 64.77 247.405 65.2C247.935 65.62 248.59 65.83 249.37 65.83C250.32 65.83 251.085 65.51 251.665 64.87L252.46 65.8C252.1 66.22 251.65 66.54 251.11 66.76C250.58 66.98 249.985 67.09 249.325 67.09C248.485 67.09 247.74 66.92 247.09 66.58C246.44 66.23 245.935 65.745 245.575 65.125C245.225 64.505 245.05 63.805 245.05 63.025C245.05 62.255 245.22 61.56 245.56 60.94C245.91 60.32 246.385 59.84 246.985 59.5C247.595 59.15 248.28 58.975 249.04 58.975C249.8 58.975 250.475 59.15 251.065 59.5C251.665 59.84 252.13 60.32 252.46 60.94C252.8 61.56 252.97 62.27 252.97 63.07ZM249.04 60.19C248.35 60.19 247.77 60.4 247.3 60.82C246.84 61.24 246.57 61.79 246.49 62.47H251.59C251.51 61.8 251.235 61.255 250.765 60.835C250.305 60.405 249.73 60.19 249.04 60.19ZM262.214 63.64H260.669V67H259.229V63.64H257.684L255.494 67H253.784L256.514 62.89L253.994 59.05H255.524L257.669 62.41H259.229V59.05H260.669V62.41H262.229L264.374 59.05H265.919L263.399 62.905L266.129 67H264.419L262.214 63.64ZM275.799 65.74V68.845H274.449V67H267.804V68.845H266.439V65.74H266.859C267.369 65.71 267.719 65.35 267.909 64.66C268.099 63.97 268.229 62.995 268.299 61.735L268.419 59.05H274.584V65.74H275.799ZM269.619 61.84C269.579 62.84 269.494 63.67 269.364 64.33C269.244 64.98 269.019 65.45 268.689 65.74H273.144V60.31H269.694L269.619 61.84ZM281.26 61.75C282.26 61.76 283.025 61.99 283.555 62.44C284.085 62.89 284.35 63.525 284.35 64.345C284.35 65.205 284.06 65.87 283.48 66.34C282.91 66.8 282.09 67.025 281.02 67.015L277.675 67V59.05H279.115V61.735L281.26 61.75ZM285.535 59.05H286.975V67H285.535V59.05ZM280.915 65.92C281.565 65.93 282.055 65.8 282.385 65.53C282.725 65.26 282.895 64.86 282.895 64.33C282.895 63.81 282.73 63.43 282.4 63.19C282.07 62.95 281.575 62.825 280.915 62.815L279.115 62.785V65.905L280.915 65.92ZM293.802 59.05H295.242V64.84L300.117 59.05H301.422V67H299.982V61.21L295.122 67H293.802V59.05ZM311.651 67.09C310.861 67.09 310.151 66.915 309.521 66.565C308.891 66.215 308.396 65.735 308.036 65.125C307.686 64.505 307.511 63.805 307.511 63.025C307.511 62.245 307.686 61.55 308.036 60.94C308.396 60.32 308.891 59.84 309.521 59.5C310.151 59.15 310.861 58.975 311.651 58.975C312.441 58.975 313.146 59.15 313.766 59.5C314.396 59.84 314.886 60.32 315.236 60.94C315.596 61.55 315.776 62.245 315.776 63.025C315.776 63.805 315.596 64.505 315.236 65.125C314.886 65.735 314.396 66.215 313.766 66.565C313.146 66.915 312.441 67.09 311.651 67.09ZM311.651 65.83C312.161 65.83 312.616 65.715 313.016 65.485C313.426 65.245 313.746 64.915 313.976 64.495C314.206 64.065 314.321 63.575 314.321 63.025C314.321 62.475 314.206 61.99 313.976 61.57C313.746 61.14 313.426 60.81 313.016 60.58C312.616 60.35 312.161 60.235 311.651 60.235C311.141 60.235 310.681 60.35 310.271 60.58C309.871 60.81 309.551 61.14 309.311 61.57C309.081 61.99 308.966 62.475 308.966 63.025C308.966 63.575 309.081 64.065 309.311 64.495C309.551 64.915 309.871 65.245 310.271 65.485C310.681 65.715 311.141 65.83 311.651 65.83ZM321.905 59.32C322.645 59.32 323.305 59.485 323.885 59.815C324.465 60.145 324.915 60.605 325.235 61.195C325.565 61.775 325.73 62.44 325.73 63.19C325.73 63.96 325.555 64.645 325.205 65.245C324.865 65.835 324.38 66.295 323.75 66.625C323.13 66.955 322.42 67.12 321.62 67.12C320.27 67.12 319.225 66.66 318.485 65.74C317.755 64.81 317.39 63.505 317.39 61.825C317.39 60.195 317.725 58.92 318.395 58C319.065 57.07 320.09 56.455 321.47 56.155L325.1 55.345L325.31 56.665L321.965 57.385C320.925 57.615 320.15 58.005 319.64 58.555C319.13 59.105 318.84 59.895 318.77 60.925C319.11 60.415 319.55 60.02 320.09 59.74C320.63 59.46 321.235 59.32 321.905 59.32ZM321.65 65.92C322.16 65.92 322.61 65.805 323 65.575C323.4 65.345 323.71 65.03 323.93 64.63C324.15 64.22 324.26 63.755 324.26 63.235C324.26 62.445 324.02 61.81 323.54 61.33C323.06 60.85 322.43 60.61 321.65 60.61C320.87 60.61 320.235 60.85 319.745 61.33C319.265 61.81 319.025 62.445 319.025 63.235C319.025 63.755 319.135 64.22 319.355 64.63C319.585 65.03 319.9 65.345 320.3 65.575C320.7 65.805 321.15 65.92 321.65 65.92ZM334.662 59.05L330.807 67.795C330.467 68.605 330.067 69.175 329.607 69.505C329.157 69.835 328.612 70 327.972 70C327.582 70 327.202 69.935 326.832 69.805C326.472 69.685 326.172 69.505 325.932 69.265L326.547 68.185C326.957 68.575 327.432 68.77 327.972 68.77C328.322 68.77 328.612 68.675 328.842 68.485C329.082 68.305 329.297 67.99 329.487 67.54L329.742 66.985L326.232 59.05H327.732L330.507 65.41L333.252 59.05H334.662ZM341.551 62.875C342.581 63.135 343.096 63.78 343.096 64.81C343.096 65.51 342.831 66.05 342.301 66.43C341.781 66.81 341.001 67 339.961 67H336.136V59.05H339.826C340.766 59.05 341.501 59.23 342.031 59.59C342.561 59.94 342.826 60.44 342.826 61.09C342.826 61.51 342.711 61.875 342.481 62.185C342.261 62.485 341.951 62.715 341.551 62.875ZM337.546 62.47H339.706C340.256 62.47 340.671 62.37 340.951 62.17C341.241 61.97 341.386 61.68 341.386 61.3C341.386 60.54 340.826 60.16 339.706 60.16H337.546V62.47ZM339.856 65.89C340.456 65.89 340.906 65.795 341.206 65.605C341.506 65.415 341.656 65.12 341.656 64.72C341.656 64.31 341.516 64.005 341.236 63.805C340.966 63.605 340.536 63.505 339.946 63.505H337.546V65.89H339.856ZM345.35 59.05H346.79V64.84L351.665 59.05H352.97V67H351.53V61.21L346.67 67H345.35V59.05Z" fill="#2E2E2E"/>
<path d="M118.317 19.3259V27.8572H117.186V19.3259H118.317ZM123.573 19.3259L119.869 24.0193H117.865L117.69 23.0818H119.196L122.172 19.3259H123.573ZM122.436 27.8572L119.231 23.8728L119.864 22.8826L123.819 27.8572H122.436ZM128.418 26.7732V23.5095C128.418 23.2595 128.367 23.0427 128.266 22.8591C128.168 22.6716 128.02 22.5271 127.821 22.4255C127.621 22.324 127.375 22.2732 127.082 22.2732C126.809 22.2732 126.569 22.3201 126.362 22.4138C126.158 22.5076 125.998 22.6306 125.881 22.783C125.768 22.9353 125.711 23.0994 125.711 23.2751H124.627C124.627 23.0486 124.686 22.824 124.803 22.6013C124.92 22.3787 125.088 22.1775 125.307 21.9978C125.53 21.8142 125.795 21.6697 126.104 21.5642C126.416 21.4548 126.764 21.4001 127.147 21.4001C127.608 21.4001 128.014 21.4783 128.365 21.6345C128.721 21.7908 128.998 22.0271 129.198 22.3435C129.401 22.656 129.502 23.0486 129.502 23.5212V26.4744C129.502 26.6853 129.52 26.9099 129.555 27.1482C129.594 27.3865 129.651 27.5916 129.725 27.7634V27.8572H128.594C128.539 27.7322 128.496 27.5662 128.465 27.3591C128.434 27.1482 128.418 26.9529 128.418 26.7732ZM128.606 24.0134L128.617 24.7751H127.522C127.213 24.7751 126.938 24.8005 126.696 24.8513C126.453 24.8982 126.25 24.9705 126.086 25.0681C125.922 25.1658 125.797 25.2888 125.711 25.4373C125.625 25.5818 125.582 25.7517 125.582 25.947C125.582 26.1462 125.627 26.3279 125.717 26.4919C125.807 26.656 125.942 26.7869 126.121 26.8845C126.305 26.9783 126.53 27.0251 126.795 27.0251C127.127 27.0251 127.42 26.9548 127.674 26.8142C127.928 26.6736 128.129 26.5017 128.278 26.2986C128.43 26.0955 128.512 25.8982 128.524 25.7068L128.987 26.2283C128.959 26.3923 128.885 26.574 128.764 26.7732C128.643 26.9724 128.481 27.1638 128.278 27.3474C128.078 27.5271 127.84 27.6775 127.563 27.7986C127.289 27.9158 126.981 27.9744 126.637 27.9744C126.207 27.9744 125.83 27.8904 125.506 27.7224C125.186 27.5544 124.936 27.3298 124.756 27.0486C124.58 26.7634 124.492 26.4451 124.492 26.0935C124.492 25.7537 124.559 25.4548 124.692 25.197C124.824 24.9353 125.016 24.7185 125.266 24.5466C125.516 24.3708 125.817 24.238 126.168 24.1482C126.52 24.0583 126.912 24.0134 127.346 24.0134H128.606ZM138.496 24.7986V24.9216C138.496 25.3669 138.448 25.7771 138.35 26.1521C138.252 26.5232 138.106 26.8455 137.91 27.1189C137.719 27.3923 137.481 27.6052 137.196 27.7576C136.91 27.906 136.58 27.9802 136.205 27.9802C135.897 27.9802 135.625 27.9392 135.391 27.8572C135.156 27.7712 134.957 27.6482 134.793 27.488C134.633 27.3279 134.504 27.1365 134.406 26.9138C134.313 26.6873 134.248 26.4333 134.213 26.1521V23.3396C134.248 23.0388 134.313 22.7693 134.406 22.531C134.504 22.2927 134.633 22.0896 134.793 21.9216C134.957 21.7537 135.155 21.6248 135.385 21.5349C135.615 21.4451 135.885 21.4001 136.194 21.4001C136.498 21.4001 136.772 21.4548 137.014 21.5642C137.26 21.6697 137.475 21.822 137.658 22.0212C137.846 22.2205 138 22.4607 138.121 22.7419C138.246 23.0193 138.34 23.3318 138.403 23.6794C138.465 24.0271 138.496 24.4001 138.496 24.7986ZM137.412 24.9216V24.7986C137.412 24.5251 137.393 24.2654 137.354 24.0193C137.319 23.7693 137.262 23.5408 137.184 23.3337C137.11 23.1228 137.012 22.9392 136.891 22.783C136.77 22.6267 136.623 22.5056 136.451 22.4197C136.283 22.3337 136.09 22.2908 135.871 22.2908C135.637 22.2908 135.442 22.3201 135.285 22.3787C135.133 22.4373 135.014 22.5154 134.928 22.613C134.842 22.7068 134.78 22.8064 134.74 22.9119V26.5857C134.787 26.6716 134.856 26.7537 134.946 26.8318C135.035 26.906 135.156 26.9685 135.309 27.0193C135.461 27.0662 135.653 27.0896 135.883 27.0896C136.156 27.0896 136.389 27.0349 136.58 26.9255C136.776 26.8123 136.934 26.656 137.055 26.4568C137.18 26.2576 137.27 26.0271 137.324 25.7654C137.383 25.5037 137.412 25.2224 137.412 24.9216ZM130.967 24.9216V24.7986C130.967 24.4001 130.998 24.0271 131.061 23.6794C131.123 23.3318 131.217 23.0193 131.342 22.7419C131.467 22.4607 131.621 22.2205 131.805 22.0212C131.992 21.822 132.207 21.6697 132.449 21.5642C132.696 21.4548 132.971 21.4001 133.276 21.4001C133.576 21.4001 133.838 21.4451 134.061 21.5349C134.287 21.6248 134.479 21.7537 134.635 21.9216C134.791 22.0896 134.916 22.2927 135.01 22.531C135.104 22.7693 135.17 23.0388 135.209 23.3396V26.0408C135.174 26.3376 135.11 26.6052 135.016 26.8435C134.922 27.0818 134.797 27.2869 134.641 27.4587C134.485 27.6267 134.291 27.7556 134.061 27.8455C133.834 27.9353 133.569 27.9802 133.264 27.9802C132.889 27.9802 132.559 27.906 132.274 27.7576C131.989 27.6052 131.748 27.3923 131.553 27.1189C131.362 26.8455 131.215 26.5232 131.114 26.1521C131.016 25.7771 130.967 25.3669 130.967 24.9216ZM132.057 24.7986V24.9216C132.057 25.2224 132.082 25.5037 132.133 25.7654C132.188 26.0271 132.272 26.2576 132.385 26.4568C132.502 26.656 132.655 26.8123 132.842 26.9255C133.03 27.0349 133.26 27.0896 133.533 27.0896C133.768 27.0896 133.961 27.0603 134.114 27.0017C134.266 26.9431 134.387 26.8669 134.477 26.7732C134.567 26.6794 134.635 26.5818 134.682 26.4802V22.9119C134.643 22.8064 134.578 22.7068 134.489 22.613C134.403 22.5154 134.283 22.4373 134.131 22.3787C133.979 22.3201 133.783 22.2908 133.545 22.2908C133.272 22.2908 133.039 22.3572 132.848 22.49C132.656 22.6228 132.502 22.8044 132.385 23.0349C132.272 23.2654 132.188 23.533 132.133 23.8376C132.082 24.1384 132.057 24.4587 132.057 24.7986ZM134.143 30.2947V18.8572H135.233V30.2947H134.143ZM142.545 27.9744C142.104 27.9744 141.703 27.9001 141.344 27.7517C140.989 27.5994 140.682 27.3865 140.424 27.113C140.17 26.8396 139.975 26.5154 139.838 26.1404C139.701 25.7654 139.633 25.3552 139.633 24.9099V24.6638C139.633 24.1482 139.709 23.6892 139.862 23.2869C140.014 22.8806 140.221 22.5369 140.483 22.2556C140.744 21.9744 141.041 21.7615 141.373 21.6169C141.705 21.4724 142.049 21.4001 142.405 21.4001C142.858 21.4001 143.248 21.4783 143.576 21.6345C143.908 21.7908 144.18 22.0095 144.391 22.2908C144.602 22.5681 144.758 22.8962 144.86 23.2751C144.961 23.6501 145.012 24.0603 145.012 24.5056V24.9919H140.278V24.1072H143.928V24.0251C143.912 23.7439 143.854 23.4705 143.752 23.2048C143.655 22.9392 143.498 22.7205 143.283 22.5486C143.069 22.3767 142.776 22.2908 142.405 22.2908C142.158 22.2908 141.932 22.3435 141.725 22.449C141.518 22.5505 141.34 22.7029 141.192 22.906C141.043 23.1091 140.928 23.3572 140.846 23.6501C140.764 23.9431 140.723 24.281 140.723 24.6638V24.9099C140.723 25.2107 140.764 25.4939 140.846 25.7595C140.932 26.0212 141.055 26.2517 141.215 26.4509C141.379 26.6501 141.576 26.8064 141.807 26.9197C142.041 27.033 142.307 27.0896 142.604 27.0896C142.987 27.0896 143.311 27.0115 143.576 26.8552C143.842 26.699 144.074 26.49 144.274 26.2283L144.93 26.7498C144.793 26.9568 144.619 27.1541 144.408 27.3416C144.198 27.5291 143.938 27.6814 143.629 27.7986C143.324 27.9158 142.963 27.9744 142.545 27.9744ZM147.42 21.5173H148.504L148.41 23.8904C148.387 24.4919 148.319 25.0115 148.205 25.449C148.092 25.8865 147.948 26.2595 147.772 26.5681C147.596 26.8728 147.399 27.1287 147.18 27.3357C146.965 27.5427 146.742 27.7166 146.512 27.8572H145.973L146.002 26.9724L146.225 26.9666C146.354 26.8142 146.479 26.658 146.6 26.4978C146.721 26.3337 146.832 26.1404 146.934 25.9177C147.035 25.6912 147.119 25.4158 147.186 25.0916C147.256 24.7634 147.301 24.363 147.321 23.8904L147.42 21.5173ZM147.69 21.5173H151.504V27.8572H150.42V22.5193H147.69V21.5173ZM145.727 26.9666H152.319V29.7263H151.235V27.8572H146.811V29.7263H145.721L145.727 26.9666ZM154.604 22.7361V30.2947H153.514V21.5173H154.51L154.604 22.7361ZM158.875 24.6345V24.7576C158.875 25.2185 158.821 25.6462 158.711 26.0408C158.602 26.4314 158.442 26.7712 158.231 27.0603C158.024 27.3494 157.768 27.574 157.463 27.7341C157.158 27.8943 156.809 27.9744 156.414 27.9744C156.012 27.9744 155.656 27.908 155.348 27.7751C155.039 27.6423 154.778 27.449 154.563 27.1951C154.348 26.9412 154.176 26.6365 154.047 26.281C153.922 25.9255 153.836 25.5251 153.789 25.0798V24.4236C153.836 23.9548 153.924 23.5349 154.053 23.1638C154.182 22.7927 154.352 22.4763 154.563 22.2146C154.778 21.949 155.037 21.7478 155.342 21.6111C155.647 21.4705 155.998 21.4001 156.397 21.4001C156.795 21.4001 157.149 21.4783 157.457 21.6345C157.766 21.7869 158.026 22.0056 158.237 22.2908C158.448 22.5759 158.606 22.9177 158.711 23.3162C158.821 23.7107 158.875 24.1501 158.875 24.6345ZM157.785 24.7576V24.6345C157.785 24.3181 157.752 24.0212 157.686 23.7439C157.619 23.4626 157.516 23.2166 157.375 23.0056C157.239 22.7908 157.063 22.6228 156.848 22.5017C156.633 22.3767 156.377 22.3142 156.08 22.3142C155.807 22.3142 155.569 22.3611 155.365 22.4548C155.166 22.5486 154.996 22.6755 154.856 22.8357C154.715 22.9919 154.6 23.1716 154.51 23.3748C154.424 23.574 154.36 23.781 154.317 23.9958V25.5134C154.395 25.7869 154.504 26.0447 154.645 26.2869C154.785 26.5251 154.973 26.7185 155.207 26.8669C155.442 27.0115 155.737 27.0837 156.092 27.0837C156.385 27.0837 156.637 27.0232 156.848 26.9021C157.063 26.7771 157.239 26.6072 157.375 26.3923C157.516 26.1775 157.619 25.9314 157.686 25.6541C157.752 25.3728 157.785 25.074 157.785 24.7576ZM163.996 26.7732V23.5095C163.996 23.2595 163.946 23.0427 163.844 22.8591C163.746 22.6716 163.598 22.5271 163.399 22.4255C163.199 22.324 162.953 22.2732 162.66 22.2732C162.387 22.2732 162.147 22.3201 161.94 22.4138C161.737 22.5076 161.576 22.6306 161.459 22.783C161.346 22.9353 161.289 23.0994 161.289 23.2751H160.205C160.205 23.0486 160.264 22.824 160.381 22.6013C160.498 22.3787 160.666 22.1775 160.885 21.9978C161.108 21.8142 161.373 21.6697 161.682 21.5642C161.994 21.4548 162.342 21.4001 162.725 21.4001C163.186 21.4001 163.592 21.4783 163.944 21.6345C164.299 21.7908 164.576 22.0271 164.776 22.3435C164.979 22.656 165.08 23.0486 165.08 23.5212V26.4744C165.08 26.6853 165.098 26.9099 165.133 27.1482C165.172 27.3865 165.229 27.5916 165.303 27.7634V27.8572H164.172C164.117 27.7322 164.074 27.5662 164.043 27.3591C164.012 27.1482 163.996 26.9529 163.996 26.7732ZM164.184 24.0134L164.196 24.7751H163.1C162.791 24.7751 162.516 24.8005 162.274 24.8513C162.031 24.8982 161.828 24.9705 161.664 25.0681C161.5 25.1658 161.375 25.2888 161.289 25.4373C161.203 25.5818 161.16 25.7517 161.16 25.947C161.16 26.1462 161.205 26.3279 161.295 26.4919C161.385 26.656 161.52 26.7869 161.699 26.8845C161.883 26.9783 162.108 27.0251 162.373 27.0251C162.705 27.0251 162.998 26.9548 163.252 26.8142C163.506 26.6736 163.707 26.5017 163.856 26.2986C164.008 26.0955 164.09 25.8982 164.102 25.7068L164.565 26.2283C164.537 26.3923 164.463 26.574 164.342 26.7732C164.221 26.9724 164.059 27.1638 163.856 27.3474C163.656 27.5271 163.418 27.6775 163.141 27.7986C162.867 27.9158 162.559 27.9744 162.215 27.9744C161.785 27.9744 161.408 27.8904 161.084 27.7224C160.764 27.5544 160.514 27.3298 160.334 27.0486C160.158 26.7634 160.071 26.4451 160.071 26.0935C160.071 25.7537 160.137 25.4548 160.27 25.197C160.403 24.9353 160.594 24.7185 160.844 24.5466C161.094 24.3708 161.395 24.238 161.746 24.1482C162.098 24.0583 162.49 24.0134 162.924 24.0134H164.184Z" fill="#FF7F5C"/>
<path d="M104 19H103V67H104V19Z" fill="#37322F"/>
<path d="M5.98038 43.533C5.98038 44.1316 6.47881 44.6246 7.08405 44.6246C7.68929 44.6246 8.18774 44.1316 8.18774 43.533C8.18774 42.9344 7.68929 42.4414 7.08405 42.4414C6.46694 42.4414 5.98038 42.9227 5.98038 43.533Z" fill="#37322F"/>
<path d="M45.5 0C20.4121 0 0 20.1878 0 45C0 69.8122 20.4121 90 45.5 90C70.5879 90 91 69.8122 91 45C91 20.1878 70.5879 0 45.5 0ZM45.5 88.8263C21.0648 88.8263 1.18675 69.1667 1.18675 45C1.18675 20.8333 21.0648 1.17371 45.5 1.17371C69.9352 1.17371 89.8132 20.8333 89.8132 45C89.8132 69.1667 69.9352 88.8263 45.5 88.8263Z" fill="#37322F"/>
<path d="M13.1716 44.9648C13.1716 62.6173 27.6974 76.9835 45.5462 76.9835C63.3949 76.9835 77.9207 62.6173 77.9207 44.9648C77.9207 27.3122 63.3949 12.946 45.5462 12.946C27.6974 12.946 13.1716 27.3122 13.1716 44.9648ZM45.5462 14.237C62.671 14.237 76.6153 28.0164 76.6153 44.9648C76.6153 61.9131 62.6828 75.6925 45.5462 75.6925C28.4095 75.6925 14.477 61.9131 14.477 44.9648C14.477 28.0164 28.4095 14.237 45.5462 14.237Z" fill="#37322F"/>
<path d="M10.2524 37.9577C10.288 37.7229 10.2998 37.4999 10.2761 37.2887C10.2524 37.0774 10.193 36.8896 10.11 36.737C10.0269 36.5727 9.90821 36.4436 9.7658 36.3379C9.62339 36.2323 9.45725 36.1619 9.26737 36.1267C9.13683 36.1032 9.00628 36.1032 8.87574 36.1267C8.7452 36.1502 8.6384 36.2088 8.53159 36.2792C8.42478 36.3497 8.32984 36.4553 8.24676 36.5727C8.16369 36.7018 8.09249 36.8426 8.04502 37.0187H8.03316C8.00942 36.7253 7.91448 36.4905 7.77207 36.3145C7.62966 36.1384 7.43977 36.0328 7.19056 35.9858C6.882 35.9389 6.62092 36.021 6.39544 36.2323C6.18182 36.4553 6.02754 36.8074 5.94447 37.2887L5.67152 38.8497L9.95569 39.5774L10.2524 37.9577ZM7.66527 37.8403L7.60593 38.2041L6.52598 38.0163L6.59718 37.6407C6.64465 37.3943 6.70399 37.2182 6.78707 37.1126C6.87014 37.007 7.01254 36.9718 7.19056 37.007C7.3923 37.0422 7.53472 37.1361 7.61779 37.2769C7.68899 37.406 7.70087 37.6056 7.66527 37.8403ZM9.56406 38.0046L9.48099 38.5093L8.2705 38.3098L8.35359 37.852C8.40106 37.5704 8.48411 37.3591 8.61465 37.2417C8.73333 37.1126 8.89949 37.0774 9.1131 37.1126C9.32672 37.1478 9.46913 37.2417 9.54034 37.3943C9.59967 37.5469 9.61153 37.7464 9.56406 38.0046Z" fill="#37322F"/>
<path d="M10.9539 34.8122L8.93644 32.1714C8.86524 32.0775 8.80589 31.9953 8.74656 31.9249C8.68722 31.8545 8.63975 31.8075 8.60415 31.7723V31.7606C8.66349 31.7841 8.74657 31.8193 8.85338 31.8545C8.96018 31.8897 9.09072 31.9366 9.23313 31.9718L11.6185 32.6995L11.8796 31.8427L7.72595 30.5869L7.4174 31.5728L9.41115 34.1784C9.48236 34.2723 9.54169 34.3545 9.58916 34.4132C9.63663 34.4718 9.6841 34.5188 9.7197 34.554V34.5657C9.67223 34.5423 9.58915 34.5071 9.49421 34.4719C9.39927 34.4366 9.26873 34.4014 9.12632 34.3545L6.77656 33.6385L6.51548 34.4836L10.6691 35.7512L10.9539 34.8122Z" fill="#37322F"/>
<path d="M10.2302 26.7253L9.55379 26.4319L8.07035 29.7065L8.74679 29.9999L9.2927 28.8027L12.58 30.2581L12.9835 29.3779L9.68433 27.9224L10.2302 26.7253Z" fill="#37322F"/>
<path d="M15.1193 25.4107L14.5022 25.0586L13.6359 26.5609L12.6627 26.0093L13.4104 24.7182L12.7933 24.3661L12.0456 25.6572L11.1081 25.129L11.927 23.7323L11.298 23.3802L10.0044 25.6102L13.7783 27.7464L15.1193 25.4107Z" fill="#37322F"/>
<path d="M16.4719 23.4975C16.6262 23.2862 16.733 23.0867 16.8042 22.8872C16.8754 22.6876 16.8991 22.4998 16.8872 22.312C16.8754 22.136 16.8279 21.9599 16.733 21.8073C16.638 21.6548 16.5075 21.5139 16.3413 21.3848C16.1871 21.2792 16.0209 21.2087 15.8548 21.1735C15.6886 21.1383 15.5225 21.1501 15.3563 21.197C15.1902 21.244 15.024 21.3261 14.8579 21.4435C14.6918 21.5609 14.5375 21.7252 14.3951 21.9247L13.9441 22.5468L13.1252 21.9599L14.217 20.4693L13.6355 20.0585L11.986 22.3355L15.5106 24.8472L16.4719 23.4975ZM14.8342 22.4764C15.0122 22.2416 15.1783 22.089 15.3326 22.0421C15.4869 21.9834 15.6649 22.0303 15.8429 22.1594C16.0328 22.2885 16.1159 22.4411 16.1159 22.6172C16.1159 22.7933 16.0209 22.9928 15.8548 23.2275L15.5225 23.6853L14.5019 22.9576L14.8342 22.4764Z" fill="#37322F"/>
<path d="M16.0677 20.5867C16.3051 20.798 16.5662 20.9623 16.8272 21.0562C17.1002 21.1501 17.3613 21.197 17.6342 21.1736C17.9072 21.1501 18.1683 21.0797 18.4412 20.9388C18.7023 20.798 18.9515 20.5985 19.1889 20.3402C19.5568 19.9412 19.7941 19.5538 19.9128 19.19L19.3313 18.6736C19.2482 19.0374 19.0702 19.3778 18.7854 19.6947C18.6311 19.859 18.465 19.9881 18.2988 20.082C18.1327 20.1759 17.9546 20.2229 17.7766 20.2229C17.5986 20.2346 17.4206 20.1994 17.2307 20.129C17.0409 20.0586 16.8747 19.9529 16.7086 19.8003C16.5306 19.6478 16.4 19.4717 16.3051 19.2957C16.2101 19.1196 16.1627 18.9318 16.1508 18.744C16.1389 18.5562 16.1745 18.3684 16.2457 18.1806C16.3169 17.9928 16.4356 17.805 16.5899 17.6407C16.851 17.359 17.1477 17.1595 17.4918 17.0421L16.8747 16.4905C16.5899 16.6431 16.2813 16.8895 15.9728 17.2299C15.7236 17.4999 15.5455 17.7816 15.4269 18.075C15.3082 18.3684 15.2489 18.6736 15.2607 18.967C15.2726 19.2604 15.3438 19.5539 15.4744 19.8238C15.6168 20.1055 15.8185 20.352 16.0677 20.5867Z" fill="#37322F"/>
<path d="M21.2544 18.2161L19.8421 16.6433L19.854 16.6316C19.9015 16.6551 19.9489 16.6668 20.0083 16.6785C20.0557 16.6903 20.1032 16.702 20.127 16.7137L22.4293 17.2067L23.2956 16.4438L20.5067 15.9039L20.3168 13.3217L19.5098 14.0259L19.7116 16.2325C19.7116 16.2795 19.7235 16.3264 19.7353 16.3851C19.7472 16.4321 19.7472 16.479 19.7591 16.5142L19.7472 16.5259L18.3943 15.0119L17.6704 15.6457L20.5542 18.8616L21.2544 18.2161Z" fill="#37322F"/>
<path d="M24.3288 15.7158L24.4238 12.4059C24.4238 12.2886 24.4238 12.1829 24.4238 12.089C24.4238 11.9951 24.4119 11.9247 24.4119 11.8778L24.4238 11.866C24.4475 11.9247 24.495 11.9951 24.5543 12.089C24.6136 12.1829 24.6848 12.2886 24.7679 12.4177L26.1801 14.4599L26.9278 13.9552L24.4831 10.4106L23.6286 10.9858L23.5456 14.2487C23.5456 14.366 23.5456 14.4717 23.5456 14.5421C23.5456 14.6125 23.5456 14.6829 23.5574 14.7299L23.5456 14.7416C23.5218 14.6947 23.4744 14.6242 23.4269 14.5303C23.3676 14.4364 23.2963 14.3308 23.2133 14.2134L21.8367 12.2064L21.089 12.7111L23.5337 16.2557L24.3288 15.7158Z" fill="#37322F"/>
<path d="M28.018 11.8076C28.0061 11.878 28.0061 11.9485 28.0061 11.9954H27.9942C27.9705 11.9485 27.9468 11.8663 27.8993 11.7724C27.8518 11.6785 27.8044 11.5611 27.7332 11.432L26.6532 9.2489L25.8462 9.63624L27.7569 13.4978L28.6351 13.0752L29.2047 9.81229C29.2285 9.69492 29.2403 9.60101 29.2522 9.50712C29.2641 9.41322 29.2641 9.34281 29.2641 9.29586L29.2759 9.28411C29.2997 9.34279 29.3234 9.42497 29.3709 9.51887C29.4183 9.6245 29.4777 9.74186 29.537 9.87096L30.6407 12.0893L31.4477 11.702L29.537 7.84047L28.5995 8.28649L28.0417 11.5142C28.0417 11.6316 28.018 11.7372 28.018 11.8076Z" fill="#37322F"/>
<path d="M26.4998 8.27475C26.7846 8.35691 27.0813 8.32171 27.4017 8.18087C27.6984 8.04002 27.9121 7.82873 28.0307 7.53531C28.1494 7.25362 28.1494 6.96018 28.0307 6.64328L27.5323 6.87803C27.5916 7.05409 27.5798 7.20668 27.5204 7.35926C27.4611 7.51184 27.3424 7.61748 27.1881 7.69964C26.8202 7.8757 26.5236 7.80526 26.3218 7.46489L25.8234 7.69964C25.9895 8.00481 26.215 8.19259 26.4998 8.27475Z" fill="#37322F"/>
<path d="M35.2696 10.4343L34.2727 6.99539L35.9223 6.52591L35.7205 5.83343L33.1453 6.57284L34.3439 10.6926L35.2696 10.4343Z" fill="#37322F"/>
<path d="M36.849 8.70879C37.0033 8.95527 37.1931 9.15481 37.4186 9.30739C37.6441 9.45997 37.9052 9.56559 38.19 9.62428C38.4748 9.68296 38.7834 9.68296 39.1157 9.62428C39.448 9.56559 39.7447 9.45997 40.0057 9.30739C40.2668 9.15481 40.4686 8.967 40.6347 8.744C40.8009 8.52099 40.9077 8.25106 40.967 7.95763C41.0263 7.66421 41.0263 7.34731 40.967 7.00693C40.9077 6.70177 40.8127 6.42005 40.6703 6.17357C40.5279 5.92709 40.338 5.72758 40.1125 5.56326C39.8871 5.39894 39.6378 5.2933 39.353 5.23462C39.0682 5.17593 38.7596 5.16419 38.4392 5.22287C38.0832 5.28156 37.7746 5.38719 37.5136 5.55151C37.2525 5.70409 37.0389 5.90362 36.8727 6.13836C36.7066 6.3731 36.5998 6.63134 36.5404 6.92476C36.4811 7.21819 36.4811 7.52336 36.5404 7.852C36.5998 8.19238 36.6947 8.46231 36.849 8.70879ZM37.6797 6.53742C37.7628 6.38484 37.8815 6.26747 38.0239 6.17357C38.1663 6.07968 38.3324 6.00927 38.5223 5.97406C38.724 5.93885 38.9021 5.93883 39.0563 5.98577C39.2225 6.02099 39.3649 6.10315 39.4836 6.20878C39.6022 6.31442 39.709 6.46699 39.7921 6.64305C39.8752 6.8191 39.9345 7.01866 39.982 7.2534C40.0176 7.48814 40.0295 7.68767 40.0057 7.87546C39.982 8.06326 39.9345 8.22756 39.8515 8.3684C39.7684 8.50925 39.6616 8.62664 39.5192 8.72054C39.3768 8.81443 39.2106 8.87312 39.0089 8.90833C38.819 8.94354 38.6528 8.9318 38.4867 8.89658C38.3206 8.84964 38.1781 8.7792 38.0595 8.66183C37.9289 8.5562 37.8221 8.41537 37.739 8.23931C37.656 8.06325 37.5848 7.87546 37.5492 7.65246C37.5136 7.42945 37.5017 7.22992 37.5254 7.03039C37.5491 6.83086 37.5966 6.67826 37.6797 6.53742Z" fill="#37322F"/>
<path d="M42.2118 8.63841C42.4135 8.81447 42.6628 8.94357 42.9476 9.03747C43.2324 9.11963 43.5528 9.16657 43.9088 9.1431C44.4547 9.11962 44.8939 9.01401 45.2499 8.83796L45.2143 8.06331C44.8939 8.26284 44.526 8.38021 44.0987 8.39194C43.8732 8.40368 43.6596 8.38021 43.4816 8.32152C43.2917 8.26284 43.1375 8.16893 43.0069 8.05156C42.8764 7.93419 42.7696 7.7816 42.6984 7.60554C42.6271 7.42949 42.5797 7.22998 42.5678 7.00697C42.5559 6.77223 42.5797 6.56096 42.6509 6.37316C42.7102 6.18537 42.8052 6.02103 42.9357 5.88019C43.0663 5.73934 43.2205 5.63371 43.4104 5.55155C43.6003 5.46939 43.8139 5.42245 44.0512 5.41071C44.4429 5.38724 44.7989 5.45765 45.1193 5.62197L45.0837 4.8004C44.7752 4.7065 44.3835 4.65954 43.9207 4.68302C43.5528 4.69475 43.2205 4.77691 42.9238 4.89428C42.6271 5.02338 42.3779 5.18769 42.1762 5.39896C41.9626 5.61023 41.8083 5.85673 41.7015 6.15015C41.5947 6.44358 41.5472 6.74874 41.5709 7.10086C41.5828 7.41776 41.654 7.71117 41.7727 7.96939C41.8439 8.25108 42.0101 8.46235 42.2118 8.63841Z" fill="#37322F"/>
<path d="M46.3301 9.13149C46.5674 9.14323 46.7691 9.13148 46.9353 9.08454C47.1014 9.03759 47.2676 8.95541 47.41 8.84978C47.5524 8.74415 47.6829 8.60333 47.8135 8.43901C47.944 8.27469 48.0627 8.07516 48.2051 7.85216L49.8903 4.97655L48.8697 4.91788L47.9915 6.56107C47.944 6.65497 47.8847 6.76059 47.8372 6.84275C47.7897 6.93664 47.7423 7.03053 47.6948 7.12443C47.6829 7.06574 47.6711 7.00707 47.6473 6.96013C47.6236 6.91318 47.6117 6.85449 47.5999 6.80754L46.7573 4.80051L45.7129 4.73009L47.137 7.84041C47.0658 7.95778 46.9828 8.05167 46.9115 8.13383C46.8403 8.21599 46.7691 8.27467 46.6861 8.30988C46.6149 8.35683 46.5437 8.38029 46.4725 8.40376C46.4013 8.4155 46.33 8.42725 46.2588 8.41551C46.0571 8.40378 45.8672 8.33335 45.6892 8.22772L45.6417 9.01412C45.7248 9.04933 45.8079 9.08452 45.9147 9.108C46.0334 9.108 46.1639 9.11976 46.3301 9.13149Z" fill="#37322F"/>
<path d="M49.0129 8.4624L48.6806 10.3051L49.5469 10.4577L49.7486 9.30748L52.763 9.83562L52.5613 10.9741L53.4276 11.1267L53.6293 9.99996L54.5431 10.2816L55.1721 9.42485L56.7386 9.90608L56.7861 10.9624L57.7948 11.2676L57.4863 6.67838L56.4419 6.36145L53.6649 9.82391L53.7599 9.28398L53.1072 9.16664L53.7361 5.63376L51.149 5.18774C51.0778 5.50465 50.9829 5.80982 50.8642 6.11498C50.7455 6.42015 50.615 6.71358 50.4726 6.99527C50.3183 7.27696 50.164 7.54691 49.986 7.80513C49.808 8.06334 49.6181 8.29807 49.4282 8.52107L49.0129 8.4624ZM56.4538 7.68775C56.5013 7.61733 56.5487 7.54691 56.5962 7.47649C56.6437 7.40607 56.6793 7.34738 56.703 7.28869L56.7267 7.30044C56.7149 7.35913 56.703 7.44126 56.703 7.52341C56.703 7.60557 56.703 7.68775 56.703 7.75817L56.7505 9.20185L55.6231 8.86146L56.4538 7.68775ZM50.8523 8.11027C50.9947 7.88726 51.1371 7.65253 51.2677 7.41778C51.3982 7.18304 51.5169 6.93658 51.6119 6.70184C51.7068 6.4671 51.7899 6.2441 51.8373 6.04457L52.6562 6.1854L52.1577 9.01405L50.4251 8.70887C50.5675 8.53282 50.7099 8.33327 50.8523 8.11027Z" fill="#37322F"/>
<path d="M59.5873 10.4342L60.0502 10.6337C60.2994 10.7393 60.5249 10.798 60.7622 10.8215C60.9877 10.845 61.2013 10.8215 61.3912 10.7746C61.5811 10.7276 61.7591 10.622 61.9015 10.4929C62.0439 10.3638 62.1745 10.1994 62.2575 9.9999C62.4356 9.60084 62.4356 9.23697 62.2575 8.92007C62.0795 8.59143 61.7354 8.3215 61.2132 8.0985L59.8247 7.49989L58.0802 11.4318L58.9702 11.8191L59.5873 10.4342ZM60.4418 8.5093L60.8216 8.6736C61.0826 8.79097 61.2488 8.92008 61.3319 9.07266C61.415 9.22524 61.4031 9.41305 61.3081 9.63605C61.2013 9.8708 61.0589 10.0116 60.8809 10.0703C60.7029 10.129 60.4774 10.0938 60.2044 9.97644L59.8484 9.82385L60.4418 8.5093Z" fill="#37322F"/>
<path d="M62.0556 11.913C62.0082 12.1947 62.0319 12.4646 62.1031 12.7229C62.1743 12.9811 62.3048 13.2275 62.5066 13.4505C62.6965 13.6736 62.9457 13.8848 63.2543 14.0492C63.729 14.3191 64.1562 14.4717 64.5359 14.5069L64.9276 13.8379C64.5478 13.8379 64.1799 13.7322 63.8002 13.521C63.5984 13.4036 63.4441 13.2745 63.3136 13.1337C63.1949 12.9811 63.1118 12.8285 63.0644 12.6524C63.0169 12.4764 63.0169 12.3003 63.0406 12.1125C63.0762 11.9247 63.1474 11.7369 63.2543 11.5374C63.3729 11.3379 63.5035 11.1735 63.6696 11.0444C63.8239 10.9153 64.0019 10.8332 64.1799 10.7862C64.3579 10.7393 64.5597 10.7275 64.7614 10.7627C64.9632 10.798 65.1649 10.8684 65.3667 10.9858C65.699 11.1853 65.9601 11.4318 66.1499 11.7369L66.5653 11.021C66.3517 10.7745 66.055 10.528 65.6515 10.305C65.3311 10.1172 65.0107 9.99983 64.7021 9.95288C64.3817 9.8942 64.085 9.90596 63.7883 9.97638C63.4916 10.0468 63.2305 10.1759 62.9813 10.3519C62.7321 10.528 62.5303 10.7745 62.3523 11.0797C62.2099 11.3614 62.1031 11.643 62.0556 11.913Z" fill="#37322F"/>
<path d="M70.0424 13.3686L67.123 11.256L66.6839 11.8428L67.752 12.6175L65.6277 15.493L66.411 16.0682L68.5353 13.1808L69.6152 13.9555L70.0424 13.3686Z" fill="#37322F"/>
<path d="M69.0926 18.2628C69.2706 18.4271 69.4605 18.5562 69.6503 18.6501C69.8402 18.744 70.0301 18.7909 70.2081 18.8144C70.3861 18.8261 70.5641 18.8027 70.7303 18.744C70.8964 18.6853 71.0388 18.5797 71.1694 18.4388C71.2643 18.3449 71.3237 18.2275 71.3711 18.1102C71.4186 17.9928 71.4305 17.8637 71.4305 17.7346C71.4186 17.6055 71.3949 17.4764 71.3237 17.3355C71.2643 17.1947 71.1694 17.0656 71.0507 16.9365L71.0626 16.9247C71.3237 17.0538 71.5729 17.1125 71.8102 17.0891C72.0357 17.0656 72.2374 16.9599 72.4036 16.7839C72.6172 16.5491 72.6884 16.2909 72.6172 15.9858C72.546 15.6806 72.3324 15.3754 71.9645 15.0351L70.7778 13.9787L67.8584 17.1595L69.0926 18.2628ZM71.0507 15.1172L71.3355 15.3754C71.5254 15.5397 71.6441 15.6923 71.6797 15.8214C71.7272 15.9505 71.6797 16.0797 71.561 16.2088C71.4186 16.3614 71.2643 16.4318 71.11 16.42C70.9439 16.4083 70.7778 16.3261 70.5997 16.1618L70.3268 15.9153L71.0507 15.1172ZM70.1963 16.7252C70.4099 16.9247 70.5404 17.1008 70.5879 17.2768C70.6235 17.4412 70.576 17.6055 70.4336 17.7698C70.2912 17.9341 70.1369 17.9928 69.9708 17.9693C69.8046 17.9459 69.6266 17.8402 69.4249 17.6759L69.0332 17.3355L69.864 16.4318L70.1963 16.7252Z" fill="#37322F"/>
<path d="M72.5828 21.8661L73.1168 21.3966L71.9538 20.1055L72.7846 19.3779L73.7814 20.4811L74.3273 19.9999L73.3186 18.8966L74.1137 18.1924L75.2055 19.3896L75.7396 18.9201L74.0069 16.9952L70.7671 19.8591L72.5828 21.8661Z" fill="#37322F"/>
<path d="M76.5455 19.8708L72.9971 22.3473L73.5549 23.1337L75.0858 22.0656L76.2132 23.6502L74.6823 24.7065L75.2401 25.5046L78.7885 23.0281L78.2307 22.2417L76.8185 23.2276L75.6911 21.6431L77.1033 20.6572L76.5455 19.8708Z" fill="#37322F"/>
<path d="M76.1886 27.1596L77.8501 26.3145L78.752 28.0281L77.0905 28.8849L77.5296 29.73L81.3866 27.7582L80.9475 26.9014L79.4047 27.6878L78.5028 25.9741L80.0455 25.1878L79.5946 24.331L75.7377 26.3028L76.1886 27.1596Z" fill="#37322F"/>
<path d="M83.3052 32.8395L79.1914 34.218L79.5037 35.1296L83.6174 33.751L83.3052 32.8395Z" fill="#37322F"/>
<path d="M78.469 32.1362C78.5521 32.3709 78.6589 32.5822 78.7776 32.7465C78.9082 32.9226 79.0506 33.0517 79.2048 33.1456C79.3591 33.2395 79.5371 33.2981 79.7151 33.3216C79.8932 33.3451 80.083 33.3216 80.2848 33.2512C80.4628 33.1925 80.6171 33.0986 80.7357 32.9812C80.8544 32.8639 80.9494 32.723 81.0087 32.5587C81.068 32.3944 81.0918 32.2184 81.0918 32.0188C81.0799 31.8193 81.0443 31.5963 80.9612 31.3615L80.712 30.6338L82.3497 30.0822L82.0412 29.1784L77.9231 30.5517L78.469 32.1362ZM80.083 30.8686L80.2729 31.4085C80.3679 31.6784 80.3916 31.8897 80.3441 32.054C80.2966 32.2184 80.1661 32.3357 79.9525 32.4061C79.7389 32.4766 79.5609 32.4648 79.4184 32.3592C79.276 32.2535 79.1574 32.0658 79.0743 31.7958L78.8963 31.2676L80.083 30.8686Z" fill="#37322F"/>
<path d="M79.8675 36.9718L82.8818 38.4272C82.9886 38.4741 83.0836 38.521 83.1666 38.5563C83.2497 38.5915 83.3209 38.6149 83.3684 38.6267V38.6384C83.3091 38.6384 83.2141 38.6502 83.1073 38.6619C83.0005 38.6737 82.87 38.6971 82.7157 38.7206L80.2591 39.1431L80.4134 40.0234L84.6857 39.284L84.5077 38.2746L81.5289 36.8544C81.4221 36.8074 81.3272 36.7605 81.256 36.737C81.1848 36.7135 81.1254 36.6901 81.078 36.6666V36.6549C81.1373 36.6549 81.2204 36.6431 81.3272 36.6314C81.434 36.6197 81.5645 36.5962 81.7069 36.5727L84.1279 36.1502L83.9736 35.2699L79.7013 36.0093L79.8675 36.9718Z" fill="#37322F"/>
<path d="M85.4111 37.946C85.6484 38.1338 85.9451 38.216 86.2774 38.1925L86.1824 37.6526C86.0044 37.6526 85.8502 37.6057 85.7196 37.5C85.5891 37.3944 85.5179 37.2653 85.4823 37.0892C85.4111 36.6902 85.5653 36.432 85.9451 36.3381L85.8502 35.7982C85.5179 35.8686 85.2805 36.0329 85.1144 36.2794C84.9482 36.5258 84.9008 36.8193 84.9601 37.1596C85.0194 37.4883 85.1618 37.7465 85.4111 37.946Z" fill="#37322F"/>
<path d="M9.14957 47.1948L5.55372 47.3591L5.58932 48.3215L9.19703 48.1572L9.25637 49.4718L9.99215 49.4366L9.82601 45.845L9.09023 45.8802L9.14957 47.1948Z" fill="#37322F"/>
<path d="M6.63382 51.432L7.73751 51.2677L7.95111 52.7466L8.66317 52.6409L8.44954 51.1738L9.50575 51.0213L9.74312 52.6175L10.4552 52.5118L10.0754 49.9649L5.77936 50.5869L6.17099 53.2395L6.88304 53.1339L6.63382 51.432Z" fill="#37322F"/>
<path d="M11.4877 56.702L11.2266 55.6691L9.83807 55.2583C9.76687 55.2348 9.70753 55.2231 9.64819 55.2114C9.58885 55.1996 9.52951 55.1879 9.45831 55.1879V55.1761C9.56511 55.1057 9.66006 55.0236 9.74313 54.9414L10.7756 53.9555L10.4908 52.8405L8.75813 54.6715L6.25408 53.7794L6.53889 54.871L8.08167 55.317C8.14101 55.3287 8.20035 55.3405 8.24782 55.3522C8.29529 55.3639 8.3309 55.3639 8.3665 55.3639V55.3757C8.31903 55.4109 8.27156 55.4344 8.23595 55.4696C8.20035 55.493 8.16475 55.5283 8.12915 55.5635L7.0136 56.6902L7.29843 57.7818L9.04294 55.8686L11.4877 56.702Z" fill="#37322F"/>
<path d="M12.7228 59.8476L11.1088 60.4814L10.3968 58.6739L11.9989 58.0518L11.6429 57.1481L7.60793 58.7208L7.96396 59.6246L9.69661 58.9438L10.4205 60.7513L8.676 61.4203L9.03203 62.3241L13.0789 60.7513L12.7228 59.8476Z" fill="#37322F"/>
<path d="M12.7946 66.5844C13.0912 66.5374 13.3998 66.4318 13.7084 66.2675C13.9813 66.1149 14.2187 65.9271 14.3967 65.7041C14.5747 65.4811 14.7052 65.2464 14.7883 64.9882C14.8714 64.7299 14.8832 64.46 14.8476 64.1665C14.812 63.8731 14.7171 63.5915 14.5509 63.3098C14.3729 63.0046 14.1712 62.7464 13.9338 62.5586C13.6965 62.3708 13.4354 62.2299 13.1624 62.1595C12.8895 62.0891 12.6047 62.0656 12.308 62.1126C12.0113 62.1595 11.7146 62.2652 11.4179 62.4295C11.1331 62.5821 10.9076 62.7698 10.7177 63.0046C10.5279 63.2393 10.4092 63.4741 10.338 63.7323C10.2668 63.9905 10.243 64.2722 10.2905 64.5539C10.338 64.8473 10.4329 65.129 10.5991 65.4224C10.7652 65.7159 10.9551 65.9506 11.1925 66.1384C11.4179 66.3262 11.6671 66.4553 11.9401 66.5375C12.2012 66.6079 12.486 66.6313 12.7946 66.5844ZM11.5841 65.4811C11.4535 65.3755 11.3349 65.2464 11.2281 65.0703C11.1331 64.906 11.0856 64.7417 11.0738 64.5774C11.0619 64.413 11.0856 64.2487 11.145 64.0961C11.2043 63.9436 11.3111 63.8027 11.4417 63.6619C11.5722 63.521 11.7383 63.4036 11.9401 63.2863C12.1418 63.1806 12.3317 63.0985 12.5216 63.0633C12.7115 63.0163 12.8895 63.0163 13.0556 63.0515C13.2218 63.075 13.3761 63.1454 13.5185 63.2393C13.6609 63.3332 13.7796 63.4741 13.8745 63.6384C13.9694 63.8145 14.0288 63.9788 14.0406 64.1431C14.0525 64.3074 14.0288 64.46 13.9694 64.6126C13.9101 64.7651 13.8033 64.906 13.6609 65.0468C13.5185 65.1877 13.3523 65.3051 13.1387 65.4224C12.937 65.5398 12.7352 65.6102 12.5572 65.6572C12.3673 65.7041 12.1893 65.7041 12.035 65.6806C11.8689 65.6572 11.7265 65.5867 11.5841 65.4811Z" fill="#37322F"/>
<path d="M16.4735 66.4789C16.2718 66.5845 16.07 66.6902 15.892 66.7958C15.7021 66.8897 15.5241 66.9836 15.3461 67.0775C15.1681 67.1714 14.9901 67.2536 14.812 67.3357C14.634 67.4179 14.4679 67.5 14.2899 67.5822C14.0644 67.6878 13.8745 67.7582 13.7202 67.8287C13.566 67.8874 13.4236 67.9226 13.3167 67.946C13.2099 67.9578 13.115 67.9578 13.0319 67.9343C12.9607 67.8991 12.8895 67.8522 12.8302 67.77C12.759 67.6761 12.7115 67.5705 12.6759 67.4414L12.0944 67.8639C12.1537 68.0282 12.2487 68.1808 12.3673 68.3451C12.5098 68.5329 12.664 68.6737 12.8302 68.7442C12.9963 68.8263 13.1625 68.8615 13.3286 68.8615C13.4948 68.8615 13.6728 68.8263 13.8508 68.7677C14.0288 68.709 14.2068 68.6268 14.3967 68.5446C14.5272 68.486 14.6578 68.4273 14.8002 68.3568C14.9426 68.2864 15.0969 68.216 15.2512 68.1338C15.4054 68.0517 15.5834 67.9695 15.7733 67.8756C15.9513 67.7817 16.1531 67.6761 16.3786 67.5587L16.9245 68.2747L14.0407 70.4226L14.6222 71.1855L18.0875 68.6033L16.4735 66.4789Z" fill="#37322F"/>
<path d="M20.6495 73.0399C20.7682 72.7817 20.8275 72.5117 20.8393 72.2418C20.8393 71.9718 20.7919 71.7019 20.6851 71.4319C20.5783 71.1619 20.4003 70.9155 20.1629 70.6807C19.9137 70.4225 19.6407 70.2347 19.3678 70.1173C19.0948 70 18.7981 69.9296 18.5252 69.9296C18.2404 69.9296 17.9556 69.9882 17.6826 70.1056C17.4097 70.223 17.1486 70.399 16.9112 70.6338C16.6857 70.8568 16.5077 71.1033 16.389 71.3615C16.2704 71.6197 16.211 71.8896 16.211 72.1596C16.211 72.4296 16.2704 72.6995 16.389 72.9695C16.5077 73.2394 16.6857 73.4859 16.9112 73.7206C17.1486 73.9554 17.3978 74.1432 17.6707 74.2605C17.9437 74.3779 18.2166 74.4483 18.5015 74.4483C18.7863 74.4483 19.0592 74.4014 19.3441 74.2723C19.6289 74.1432 19.89 73.9788 20.1392 73.7324C20.3528 73.5328 20.5308 73.2981 20.6495 73.0399ZM19.7831 72.5821C19.6882 72.7465 19.5458 72.9108 19.3797 73.0868C19.2135 73.2512 19.0474 73.3803 18.8812 73.4624C18.7151 73.5563 18.5489 73.6033 18.3828 73.615C18.2166 73.6268 18.0505 73.6032 17.8962 73.5446C17.7419 73.4859 17.5877 73.3803 17.4452 73.2394C17.3147 73.1103 17.2198 72.9577 17.1604 72.8052C17.1011 72.6526 17.0892 72.4882 17.1011 72.3239C17.1248 72.1596 17.1723 71.9953 17.2672 71.831C17.3622 71.6666 17.4927 71.5023 17.647 71.338C17.8131 71.1854 17.9793 71.0563 18.1454 70.9742C18.3116 70.8803 18.4896 70.8333 18.6557 70.8216C18.8219 70.8098 18.988 70.8216 19.1542 70.892C19.3203 70.9624 19.4627 71.0446 19.6051 71.1854C19.7475 71.3263 19.8425 71.4789 19.9018 71.6314C19.9612 71.784 19.973 71.9483 19.9493 72.1009C19.9374 72.2535 19.8781 72.4178 19.7831 72.5821Z" fill="#37322F"/>
<path d="M23.8058 74.8943L24.2568 74.3309L22.1681 72.6642L19.4386 75.9976L20.1981 76.6079L22.4767 73.8262L23.8058 74.8943Z" fill="#37322F"/>
<path d="M27.26 76.2795L24.1982 77.5002C24.0795 77.5471 23.9965 77.5823 23.9252 77.6175C23.854 77.6527 23.8066 77.6762 23.7591 77.6997H23.7472C23.7828 77.6527 23.8303 77.5941 23.8896 77.5002C23.949 77.4063 24.0202 77.3123 24.1033 77.1832L25.4205 75.1292L24.661 74.648L22.335 78.2748L23.1657 78.7912L26.2869 77.5706C26.3937 77.5236 26.4886 77.4884 26.5717 77.4532C26.6548 77.418 26.7141 77.3828 26.7616 77.3593L26.7734 77.371C26.7378 77.418 26.6785 77.4884 26.6192 77.5823C26.5598 77.6762 26.4886 77.7818 26.4056 77.9109L25.0645 80.0001L25.824 80.4814L28.1501 76.8546L27.26 76.2795Z" fill="#37322F"/>
<path d="M31.3307 78.3334L30.5474 80.0118C30.3338 80.0236 30.1439 80.0118 29.9659 79.9883C29.7879 79.9649 29.6218 79.9179 29.4675 79.8475C29.2657 79.7536 29.1471 79.648 29.0996 79.5071C29.0521 79.3663 29.0759 79.202 29.1708 78.9907L29.7998 77.6292L28.9216 77.2301L28.2333 78.709C28.0553 79.0846 28.0315 79.4132 28.1502 79.6949C28.2689 79.9766 28.5181 80.2113 28.9097 80.3757C29.1233 80.4696 29.3488 80.54 29.5743 80.5752C29.7998 80.6104 30.0371 80.6222 30.2745 80.6104L29.5268 82.2301L30.405 82.6292L32.2207 78.7325L31.3307 78.3334Z" fill="#37322F"/>
<path d="M35.4373 80.5633L35.6627 79.8826L33.1824 79.0727L31.8295 83.1572L34.4048 83.9905L34.6184 83.3215L32.9688 82.7816L33.3248 81.737L34.7489 82.1948L34.9744 81.5257L33.5503 81.0563L33.8826 80.0586L35.4373 80.5633Z" fill="#37322F"/>
<path d="M37.5375 80.4343C37.2171 80.4812 36.9323 80.5751 36.6712 80.7277C36.422 80.8803 36.1965 81.0798 36.0185 81.338C35.8404 81.5845 35.7218 81.8779 35.6387 82.2183C35.5675 82.5352 35.5556 82.8287 35.6031 83.1103C35.6506 83.392 35.7455 83.6385 35.8998 83.8615C36.0541 84.0845 36.2558 84.2723 36.505 84.4367C36.7542 84.5892 37.0509 84.7066 37.3951 84.7887C37.9291 84.9061 38.392 84.9179 38.7599 84.8357L38.926 84.0728C38.57 84.1901 38.1783 84.2019 37.7511 84.108C37.5256 84.061 37.3358 83.9789 37.1696 83.8733C37.0035 83.7676 36.8729 83.6385 36.778 83.4859C36.683 83.3333 36.6237 83.169 36.5881 82.9812C36.5644 82.7934 36.5762 82.5939 36.6237 82.3709C36.6712 82.1479 36.7542 81.9484 36.861 81.784C36.9678 81.6197 37.1103 81.4789 37.2646 81.385C37.4188 81.2794 37.6087 81.2206 37.8104 81.1854C38.0122 81.1502 38.2258 81.162 38.4632 81.2089C38.8429 81.2911 39.1633 81.4554 39.4363 81.6901L39.6143 80.8803C39.3414 80.7042 38.9735 80.5751 38.5225 80.4695C38.2021 80.3991 37.8579 80.3873 37.5375 80.4343Z" fill="#37322F"/>
<path d="M42.806 81.1268L41.3107 82.7817C41.2751 82.8169 41.2395 82.8521 41.2157 82.8991C41.192 82.946 41.1564 82.9813 41.1445 83.0047H41.1327L41.3344 80.9859L40.3613 80.892L39.9222 85.1644L40.8953 85.2582L41.1089 83.1573H41.1208C41.1445 83.2042 41.1564 83.2512 41.1801 83.2982C41.2038 83.3451 41.2276 83.3803 41.2395 83.4038L42.4381 85.3991L43.5892 85.5165L42.0939 83.1221L43.8859 81.2324L42.806 81.1268Z" fill="#37322F"/>
<path d="M47.4338 81.1619L45.5825 83.8732C45.5113 83.9788 45.4638 84.061 45.4163 84.1197C45.3807 84.1783 45.3451 84.237 45.3214 84.284H45.3095C45.3095 84.2253 45.3214 84.1431 45.3214 84.0375C45.3214 83.9319 45.3214 83.8028 45.3214 83.6502L45.2502 81.2206L44.3483 81.2441L44.4788 85.5398L45.4519 85.5164L47.3389 82.7817C47.4101 82.6878 47.4575 82.5939 47.505 82.5234C47.5525 82.4413 47.5881 82.3826 47.6 82.3356H47.6118C47.6118 82.3943 47.6 82.4882 47.6 82.5939C47.6 82.6995 47.6 82.8403 47.6 82.9812L47.6712 85.4577L48.5731 85.4342L48.4544 81.1384L47.4338 81.1619Z" fill="#37322F"/>
<path d="M52.4647 80.5166L51.0169 83.4508C50.9694 83.5565 50.922 83.6504 50.8982 83.7208C50.8745 83.7912 50.8507 83.8499 50.827 83.8968H50.8152C50.8152 83.8382 50.8033 83.756 50.7914 83.6504C50.7795 83.5447 50.7558 83.4156 50.7321 83.2748L50.3167 80.8804L49.4267 81.033L50.1624 85.2701L51.1237 85.1058L52.6071 82.1246C52.6546 82.0189 52.7021 81.925 52.7377 81.8429C52.7733 81.7607 52.797 81.6903 52.8089 81.6434H52.8207C52.8207 81.702 52.8326 81.7959 52.8445 81.9016C52.8564 82.0072 52.8801 82.1363 52.9038 82.2889L53.3311 84.7302L54.2211 84.5776L53.4853 80.3405L52.4647 80.5166Z" fill="#37322F"/>
<path d="M51.2672 79.554C50.8518 79.6244 50.6026 79.4718 50.5076 79.0962L49.9618 79.1901C50.033 79.5188 50.1991 79.7535 50.4483 79.9178C50.6975 80.0822 50.9942 80.1291 51.3384 80.0704C51.6707 80.0117 51.9199 79.8709 52.1216 79.6244C52.3115 79.3897 52.3946 79.0962 52.3709 78.7676L51.8249 78.8615C51.8249 79.0376 51.7775 79.1901 51.6707 79.3192C51.5757 79.4483 51.4333 79.5305 51.2672 79.554Z" fill="#37322F"/>
<path d="M58.9221 80.399C58.9102 80.5046 58.9102 80.622 58.8983 80.7159C58.8983 80.8215 58.8865 80.9272 58.8865 81.0328C58.8509 80.9858 58.8153 80.9389 58.7797 80.8919C58.7441 80.845 58.7085 80.8098 58.6729 80.7746L57.0707 79.284L56.0857 79.6478L58.6729 81.9131C58.6491 82.0539 58.6254 82.1713 58.5898 82.2652C58.5542 82.3591 58.5186 82.453 58.4592 82.5234C58.4118 82.5938 58.3524 82.6525 58.2931 82.6877C58.2337 82.7347 58.1744 82.7699 58.1032 82.7934C57.9133 82.8638 57.7116 82.8755 57.5098 82.8521L57.7828 83.5915C57.8659 83.5915 57.9608 83.5798 58.0676 83.5563C58.1744 83.5328 58.305 83.4976 58.4592 83.4389C58.6728 83.3568 58.8509 83.2629 58.9933 83.1455C59.1357 83.0281 59.2425 82.899 59.3374 82.7347C59.4205 82.5821 59.4917 82.3943 59.5392 82.1948C59.5866 81.9952 59.6222 81.7605 59.646 81.5023L59.9902 78.2041L59.0407 78.5563L58.9221 80.399Z" fill="#37322F"/>
<path d="M62.9092 76.69L63.7043 78.1924L61.9716 79.0961L61.1647 77.582L60.3102 78.0398L62.3395 81.8309L63.194 81.3848L62.3277 79.7534L64.0603 78.8496L64.9267 80.4811L65.793 80.0351L63.7636 76.2323L62.9092 76.69Z" fill="#37322F"/>
<path d="M67.1101 73.9319L67.122 77.1948C67.122 77.3122 67.122 77.4178 67.122 77.4882C67.122 77.5587 67.1338 77.6173 67.1338 77.676L67.122 77.6878C67.0982 77.6408 67.0508 77.5704 66.9914 77.4765C66.9321 77.3826 66.8609 77.277 66.7778 77.1596L65.3418 75.1878L64.6179 75.7159L67.1576 79.1901L67.9527 78.6267V75.3169C67.9527 75.1995 67.9527 75.0938 67.9408 75.0117C67.929 74.9178 67.9289 74.8474 67.9171 74.8004L67.929 74.7887C67.9646 74.8474 68.0002 74.9178 68.0714 75.0117C68.1307 75.1056 68.2138 75.2113 68.2968 75.3404L69.7565 77.3474L70.4805 76.8192L67.9408 73.345L67.1101 73.9319Z" fill="#37322F"/>
<path d="M73.2215 72.6407C73.1265 72.5468 73.0197 72.4647 72.9129 72.4177C72.7943 72.3591 72.6756 72.3356 72.5451 72.3356C72.4145 72.3356 72.284 72.3591 72.1416 72.406C71.9991 72.453 71.8567 72.5351 71.7143 72.6407L71.7025 72.629C71.8567 72.3825 71.9279 72.136 71.9161 71.913C71.9042 71.6783 71.8211 71.4788 71.655 71.3027C71.4414 71.0797 71.1803 70.9858 70.8717 71.0328C70.5632 71.0797 70.2309 71.2675 69.863 71.6079L68.7 72.6877L71.6668 75.8215L72.8773 74.6947C73.0553 74.5304 73.1978 74.3544 73.3046 74.1783C73.4114 74.0022 73.4826 73.8145 73.5063 73.6384C73.53 73.4623 73.53 73.2863 73.4826 73.122C73.4351 72.9342 73.352 72.7816 73.2215 72.6407ZM70.6106 73.298L69.863 72.5117L70.1478 72.2534C70.3258 72.0774 70.492 71.9835 70.6225 71.9483C70.753 71.913 70.8836 71.9717 71.0141 72.1008C71.1565 72.2534 71.2159 72.406 71.1922 72.5703C71.1684 72.7346 71.0735 72.899 70.8955 73.0515L70.6106 73.298ZM72.2958 74.3191L71.9161 74.6713L71.0735 73.7792L71.4176 73.4624C71.6313 73.2628 71.8211 73.1454 71.9991 73.122C72.1771 73.0985 72.3314 73.1572 72.4857 73.3215C72.64 73.4741 72.6875 73.6384 72.6519 73.8027C72.6044 73.967 72.4857 74.1431 72.2958 74.3191Z" fill="#37322F"/>
<path d="M74.978 71.4905L74.1354 70.7745L75.1086 69.6478L74.5627 69.1783L73.5895 70.3167L72.7707 69.6243L73.8388 68.3919L73.2928 67.9341L71.5958 69.8825L74.8831 72.6877L76.6513 70.6571L76.1173 70.1877L74.978 71.4905Z" fill="#37322F"/>
<path d="M76.9381 67.6996C77.0923 67.4883 77.1991 67.2653 77.2703 67.054C77.3416 66.8427 77.3653 66.6315 77.3415 66.4319C77.3297 66.2324 77.2704 66.0446 77.1636 65.8803C77.0686 65.7042 76.9262 65.5634 76.7482 65.446C76.3921 65.1995 76.0243 65.1291 75.6682 65.2348C75.3122 65.3404 74.9681 65.6221 74.6476 66.0916L73.7813 67.324L77.3415 69.777L77.8993 68.9906L76.6414 68.1338L76.9381 67.6996ZM76.3091 67.4179L76.0955 67.7348L74.9087 66.9132L75.1461 66.5728C75.3122 66.3381 75.4784 66.2089 75.6445 66.1503C75.8107 66.1033 76.0005 66.1385 76.1904 66.2794C76.404 66.4202 76.5108 66.5963 76.5346 66.7841C76.5464 66.9719 76.4752 67.1831 76.3091 67.4179Z" fill="#37322F"/>
<path d="M80.224 63.9789C80.1172 64.1785 79.9866 64.3428 79.8442 64.4602C79.7018 64.5893 79.5357 64.6714 79.3695 64.7184C79.1915 64.7653 79.0135 64.7771 78.8236 64.7536C78.6337 64.7301 78.432 64.6597 78.2421 64.5541C78.0404 64.4484 77.8624 64.3076 77.7318 64.155C77.6013 64.0024 77.5063 63.8381 77.4589 63.6503C77.4114 63.4742 77.3995 63.2865 77.4233 63.0752C77.447 62.8757 77.5182 62.6761 77.6369 62.4649C77.8267 62.1245 78.0641 61.8663 78.3727 61.6785L77.6487 61.2912C77.3995 61.5024 77.1622 61.8076 76.9485 62.2184C76.7705 62.5353 76.6637 62.8522 76.6163 63.1691C76.5688 63.486 76.5925 63.7912 76.6637 64.0728C76.7468 64.3545 76.8773 64.6245 77.0672 64.8592C77.2571 65.0939 77.5063 65.3052 77.8149 65.4578C78.0997 65.6104 78.3845 65.7043 78.6693 65.7395C78.9542 65.7747 79.2271 65.7512 79.4763 65.6691C79.7374 65.5869 79.9748 65.4461 80.2002 65.2583C80.4257 65.0587 80.6275 64.8123 80.7936 64.5071C81.0547 64.0259 81.1971 63.6034 81.2208 63.216L80.5325 62.8404C80.5325 63.2278 80.4257 63.6033 80.224 63.9789Z" fill="#37322F"/>
<path d="M78.9665 57.8053L80.7703 60.54C80.8415 60.6456 80.889 60.7278 80.9365 60.7865C80.9839 60.8451 81.0195 60.8921 81.0551 60.939V60.9508C81.0077 60.9273 80.9365 60.8921 80.8297 60.8452C80.7347 60.7982 80.616 60.7513 80.4736 60.7043L78.1832 59.8241L77.8628 60.6574L81.9096 62.2184L82.2656 61.3146L80.4499 58.533C80.3906 58.4391 80.3312 58.3452 80.2719 58.2747C80.2125 58.2043 80.1769 58.1456 80.1413 58.1104V58.0987C80.2007 58.1339 80.2719 58.1691 80.3787 58.2043C80.4855 58.2513 80.6042 58.2982 80.7466 58.3569L83.0726 59.2489L83.393 58.4156L79.3462 56.8546L78.9665 57.8053Z" fill="#37322F"/>
<path d="M80.5095 55.317L83.9985 56.1855L84.2358 55.2583L80.7468 54.378L81.0672 53.1104L80.3552 52.9343L79.4651 56.4085L80.1772 56.5846L80.5095 55.317Z" fill="#37322F"/>
<path d="M84.1509 52.0072L83.0473 51.8428L83.2727 50.364L82.5607 50.2583L82.3352 51.7372L81.279 51.5729L81.5282 49.9767L80.8162 49.871L80.4245 52.4179L84.7206 53.0635L85.1241 50.3992L84.412 50.2935L84.1509 52.0072Z" fill="#37322F"/>
<path d="M81.6711 48.2865L85.267 48.4509L85.3144 47.4884L81.7186 47.3241L81.7779 46.0095L81.0421 45.9743L80.8641 49.5542L81.5999 49.5894L81.6711 48.2865Z" fill="#37322F"/>
<path d="M82.8714 43.533C82.8714 44.1316 83.3699 44.6246 83.9751 44.6246C84.5803 44.6246 85.0788 44.1316 85.0788 43.533C85.0788 42.9344 84.5803 42.4414 83.9751 42.4414C83.3699 42.4414 82.8714 42.9227 82.8714 43.533Z" fill="#37322F"/>
<path d="M50.7344 43.3803H48.3846V50.7277H50.7344V43.3803Z" fill="#37322F"/>
<path d="M54.2831 43.3803H51.9333V50.7277H54.2831V43.3803Z" fill="#37322F"/>
<path d="M57.8172 43.3803H55.4674V50.7277H57.8172V43.3803Z" fill="#37322F"/>
<path d="M61.3542 43.3803H59.0044V50.7277H61.3542V43.3803Z" fill="#37322F"/>
<path d="M33.9403 31.3967H31.2464V50.7864H33.9403V31.3967Z" fill="#37322F"/>
<path d="M38.2732 31.3967H35.5793V50.7864H38.2732V31.3967Z" fill="#37322F"/>
<path d="M42.6038 31.3967H39.9099V50.7864H42.6038V31.3967Z" fill="#37322F"/>
<path d="M48.8238 34.8357C48.5865 34.9413 48.3254 35.0117 48.0406 35.0587V36.0446C48.2423 36.0211 48.4204 35.9976 48.5746 35.9507C48.7289 35.9037 48.8832 35.8451 49.0256 35.7629V38.9437H50.3548V34.4249H49.5715C49.3223 34.5892 49.0731 34.7301 48.8238 34.8357Z" fill="#37322F"/>
<path d="M53.9726 34.695C53.7115 34.519 53.4148 34.4368 53.0707 34.4368C52.7384 34.4368 52.4536 34.5072 52.2044 34.6363C51.9551 34.7654 51.7534 34.9532 51.6228 35.1997C51.4923 35.4462 51.4211 35.7279 51.4211 36.0565C51.4211 36.3147 51.4686 36.5495 51.5754 36.7607C51.6822 36.9603 51.8246 37.1246 52.0145 37.242C52.2043 37.3593 52.4061 37.418 52.6316 37.418C53.0113 37.418 53.2962 37.2889 53.486 37.0424H53.5098C53.5098 37.3711 53.4267 37.6293 53.2606 37.7936C53.0944 37.9579 52.8571 38.0518 52.5485 38.0518C52.418 38.0518 52.2637 38.0283 52.0976 37.9814C51.9314 37.9344 51.8009 37.8875 51.7059 37.8288V38.8382C52.0026 38.9556 52.3349 39.0143 52.7265 39.0143C53.3674 39.0143 53.8658 38.7913 54.2337 38.357C54.6016 37.9227 54.7796 37.3124 54.7796 36.5377C54.7796 36.1034 54.7203 35.7396 54.5897 35.4227C54.4354 35.1176 54.2337 34.8711 53.9726 34.695ZM53.3436 36.35C53.2843 36.4439 53.1894 36.5025 53.0588 36.5025C52.952 36.5025 52.8571 36.4556 52.7859 36.3617C52.7146 36.2678 52.6791 36.1387 52.6791 35.9626C52.6791 35.7748 52.7146 35.634 52.7859 35.5518C52.8571 35.4697 52.952 35.4227 53.0707 35.4227C53.1894 35.4227 53.2724 35.4697 53.3436 35.5753C53.4148 35.6809 53.4504 35.81 53.4504 35.9626C53.4386 36.1269 53.403 36.2561 53.3436 36.35Z" fill="#37322F"/>
<path d="M57.8406 36.0211C57.449 36.0211 57.1523 36.1502 56.9387 36.3967H56.915C56.9387 36.0915 57.0336 35.8568 57.2116 35.669C57.3897 35.4812 57.6151 35.3873 57.9 35.3873C58.1848 35.3873 58.4221 35.446 58.6239 35.5751V34.5423C58.4221 34.4718 58.1373 34.4249 57.805 34.4249C57.3541 34.4249 56.9743 34.5188 56.6539 34.7183C56.3335 34.9178 56.0842 35.2113 55.9062 35.5986C55.7282 35.9859 55.6333 36.4319 55.6333 36.9249C55.6333 37.5822 55.7875 38.0868 56.0724 38.4507C56.369 38.8145 56.7844 38.9906 57.3303 38.9906C57.6389 38.9906 57.9237 38.9202 58.1729 38.7793C58.4221 38.6385 58.6239 38.4507 58.7544 38.2042C58.8968 37.9577 58.9562 37.6878 58.9562 37.3944C58.9562 36.9836 58.8493 36.6549 58.6476 36.3967C58.4696 36.1502 58.1848 36.0211 57.8406 36.0211ZM57.6151 37.8638C57.5439 37.9577 57.449 38.0164 57.3303 38.0164C57.2235 38.0164 57.1286 37.9695 57.0574 37.8638C56.9862 37.7582 56.9506 37.6291 56.9506 37.4765C56.9506 37.3122 56.9862 37.1831 57.0455 37.0775C57.1167 36.9836 57.2116 36.9249 57.3303 36.9249C57.4609 36.9249 57.5558 36.9718 57.6151 37.0657C57.6745 37.1596 57.7101 37.2887 57.7101 37.453C57.7219 37.6291 57.6863 37.7699 57.6151 37.8638Z" fill="#37322F"/>
<path d="M61.4856 36.1385C61.3788 36.1385 61.272 36.1385 61.1415 36.162L61.189 35.5399H62.6843V34.5187H60.1565L59.9903 37.1713C60.2277 37.1244 60.4769 37.0892 60.7499 37.0892C61.2958 37.0892 61.5687 37.2535 61.5687 37.5821C61.5687 37.7347 61.5094 37.8521 61.3907 37.9342C61.272 38.0164 61.094 38.0634 60.8685 38.0634C60.5244 38.0634 60.1921 37.9812 59.8835 37.8169V38.838C60.0259 38.8967 60.2158 38.9319 60.4294 38.9671C60.6549 39.0023 60.8685 39.0141 61.0703 39.0141C61.4382 39.0141 61.7586 38.9436 62.0316 38.8145C62.3045 38.6854 62.5181 38.4976 62.6605 38.2512C62.8029 38.0164 62.8741 37.7465 62.8741 37.4413C62.8741 37.0422 62.7555 36.7253 62.5062 36.4906C62.2689 36.2558 61.9247 36.1385 61.4856 36.1385Z" fill="#37322F"/>
<path d="M22.535 59.6715L44.4899 59.6245L45.2257 60.4578H47.0533L47.7891 59.6245L69.649 59.7301L69.6609 37.8053L67.1094 37.7114L67.145 31.2207L46.5311 31.3029V27.1949H44.3475L41.9503 25.5165H37.7136V26.7607H36.3725V25.5283H32.0646L29.6911 27.2301H27.4956V31.6315H25.0272L24.9916 37.6057L22.5231 37.7935L22.535 59.6715ZM28.8129 28.5212H30.1302L32.5037 26.8193H35.079V28.0518H39.0308V26.8193H41.5468L43.944 28.4978H45.2375L45.2257 50.7982H46.5311V41.6316L63.2999 41.6668V52.9461H28.8129V28.5212ZM26.3326 32.9226H27.4956V54.2254H64.6053V40.3757L46.5311 40.3405V32.6057L65.8277 32.5236L65.6971 55.6456H26.2021L26.3326 32.9226ZM24.9916 38.8968L24.8848 56.9367H66.9907L67.0975 39.0142L68.3436 39.0611L68.3317 58.4391L47.1838 58.3334L46.448 59.1667H45.8191L45.0833 58.3334L23.8404 58.3804L23.8286 38.979L24.9916 38.8968Z" fill="#37322F"/>
<path d="M47.5645 65.7865L55.5513 65.7982V64.3898L47.1254 64.378L45.998 65.1527L44.8706 64.378H36.4684V65.7865H44.4315L46.0099 66.8663L47.5645 65.7865Z" fill="#37322F"/>
</svg>
